<svg width="16" height="14" viewBox="0 0 16 14" fill="none" xmlns="http://www.w3.org/2000/svg">
<path d="M13.5 0H2.5C1.96974 0.000579017 1.46137 0.211479 1.08643 0.586426C0.711479 0.961373 0.500579 1.46974 0.5 2V12C0.500579 12.5303 0.711479 13.0386 1.08643 13.4136C1.46137 13.7885 1.96974 13.9994 2.5 14H13.5C14.0303 13.9994 14.5386 13.7885 14.9136 13.4136C15.2885 13.0386 15.4994 12.5303 15.5 12V2C15.4994 1.46974 15.2885 0.961373 14.9136 0.586426C14.5386 0.211479 14.0303 0.000579017 13.5 0ZM3 7C2.89641 7 2.79538 6.96782 2.71086 6.90792C2.62635 6.84802 2.56253 6.76334 2.52822 6.6656C2.49391 6.56785 2.49081 6.46186 2.51934 6.36228C2.54787 6.26269 2.60663 6.17443 2.6875 6.10969L4.69969 4.5L2.6875 2.89031C2.6362 2.84927 2.59349 2.79853 2.5618 2.74099C2.53011 2.68344 2.51007 2.62022 2.50282 2.55493C2.49556 2.48964 2.50124 2.42356 2.51952 2.36046C2.5378 2.29736 2.56834 2.23849 2.60938 2.18719C2.65041 2.13589 2.70115 2.09318 2.7587 2.06149C2.81624 2.0298 2.87947 2.00976 2.94476 2.0025C3.01005 1.99525 3.07613 2.00092 3.13923 2.01921C3.20232 2.03749 3.2612 2.06802 3.3125 2.10906L5.8125 4.10906C5.87112 4.1559 5.91845 4.21533 5.95098 4.28296C5.9835 4.35058 6.00039 4.42465 6.00039 4.49969C6.00039 4.57472 5.9835 4.6488 5.95098 4.71642C5.91845 4.78404 5.87112 4.84347 5.8125 4.89031L3.3125 6.89031C3.22382 6.96131 3.1136 7 3 7ZM8 7H6C5.86739 7 5.74021 6.94732 5.64645 6.85355C5.55268 6.75979 5.5 6.63261 5.5 6.5C5.5 6.36739 5.55268 6.24021 5.64645 6.14645C5.74021 6.05268 5.86739 6 6 6H8C8.13261 6 8.25979 6.05268 8.35355 6.14645C8.44732 6.24021 8.5 6.36739 8.5 6.5C8.5 6.63261 8.44732 6.75979 8.35355 6.85355C8.25979 6.94732 8.13261 7 8 7Z" fill="black"/>
</svg>
