<svg width="10" height="14" viewBox="0 0 10 14" fill="none" xmlns="http://www.w3.org/2000/svg">
<path d="M10.0001 4C10.0003 3.6493 9.90821 3.30473 9.73316 3.00084C9.55812 2.69695 9.30624 2.44443 9.0028 2.26861C8.69936 2.09278 8.35503 1.99984 8.00433 1.9991C7.65363 1.99836 7.30891 2.08985 7.00473 2.26439C6.70055 2.43893 6.44761 2.69038 6.27128 2.99353C6.09496 3.29668 6.00145 3.64086 6.00012 3.99155C5.9988 4.34225 6.08972 4.68713 6.26375 4.9916C6.43778 5.29607 6.68882 5.54942 6.99167 5.72625C6.92011 6.635 6.36417 6.8825 4.64792 7.23937C4.09292 7.35437 3.52511 7.47219 3.00073 7.67469V3.73094C3.38202 3.5108 3.68001 3.17101 3.84849 2.76425C4.01698 2.3575 4.04653 1.90651 3.93258 1.48125C3.81863 1.05598 3.56754 0.680198 3.21826 0.412179C2.86897 0.144161 2.441 -0.00111389 2.00073 -0.00111389C1.56046 -0.00111389 1.1325 0.144161 0.78321 0.412179C0.433922 0.680198 0.182831 1.05598 0.0688815 1.48125C-0.0450684 1.90651 -0.0155094 2.3575 0.152974 2.76425C0.321458 3.17101 0.61945 3.5108 1.00073 3.73094V10.2691C0.620028 10.4889 0.322362 10.828 0.153771 11.2341C-0.0148205 11.6401 -0.0449426 12.0903 0.068063 12.5151C0.181069 12.94 0.430905 13.3158 0.778934 13.5844C1.12696 13.853 1.55379 13.9994 1.99341 14.001C2.43302 14.0027 2.86093 13.8594 3.21095 13.5934C3.56097 13.3274 3.8136 12.9535 3.92977 12.5295C4.04594 12.1055 4.01917 11.6551 3.85361 11.2478C3.68805 10.8406 3.39291 10.4992 3.01386 10.2766C3.08855 9.71406 3.51386 9.51625 5.05323 9.19781C5.91042 9.02062 6.79636 8.83719 7.54636 8.35562C8.45261 7.775 8.93792 6.89375 8.99511 5.73406C9.30037 5.55899 9.55404 5.30647 9.7305 5.00201C9.90695 4.69754 9.99996 4.3519 10.0001 4ZM2.00011 0.999999C2.19789 0.999999 2.39123 1.05865 2.55568 1.16853C2.72013 1.27841 2.8483 1.43459 2.92399 1.61732C2.99968 1.80004 3.01948 2.00111 2.98089 2.19509C2.94231 2.38907 2.84707 2.56725 2.70721 2.70711C2.56736 2.84696 2.38918 2.9422 2.1952 2.98078C2.00122 3.01937 1.80015 2.99957 1.61742 2.92388C1.4347 2.84819 1.27852 2.72002 1.16864 2.55557C1.05876 2.39112 1.00011 2.19778 1.00011 2C1.00011 1.73478 1.10547 1.48043 1.293 1.29289C1.48054 1.10536 1.73489 0.999999 2.00011 0.999999ZM2.00011 13C1.80233 13 1.60899 12.9413 1.44454 12.8315C1.28009 12.7216 1.15192 12.5654 1.07623 12.3827C1.00054 12.2 0.980738 11.9989 1.01932 11.8049C1.05791 11.6109 1.15315 11.4327 1.293 11.2929C1.43285 11.153 1.61104 11.0578 1.80502 11.0192C1.999 10.9806 2.20007 11.0004 2.38279 11.0761C2.56552 11.1518 2.7217 11.28 2.83158 11.4444C2.94146 11.6089 3.00011 11.8022 3.00011 12C3.00011 12.2652 2.89475 12.5196 2.70721 12.7071C2.51968 12.8946 2.26532 13 2.00011 13ZM8.00011 5C7.80233 5 7.60899 4.94135 7.44454 4.83147C7.28009 4.72159 7.15192 4.56541 7.07623 4.38268C7.00054 4.19996 6.98074 3.99889 7.01932 3.80491C7.05791 3.61093 7.15315 3.43275 7.293 3.29289C7.43285 3.15304 7.61104 3.0578 7.80502 3.01921C7.999 2.98063 8.20007 3.00043 8.38279 3.07612C8.56552 3.15181 8.7217 3.27998 8.83158 3.44443C8.94146 3.60888 9.00011 3.80222 9.00011 4C9.00011 4.26522 8.89475 4.51957 8.70721 4.70711C8.51968 4.89464 8.26532 5 8.00011 5Z" fill="black"/>
</svg>
