<svg width="16" height="14" viewBox="0 0 16 14" fill="none" xmlns="http://www.w3.org/2000/svg">
<path d="M12.3124 14C12.2072 14.0004 12.1045 13.9676 12.019 13.9063L7.99991 10.9925L3.98084 13.9063C3.89498 13.9685 3.79153 14.0019 3.68546 14.0015C3.57939 14.0011 3.47619 13.967 3.39078 13.9041C3.30537 13.8412 3.24218 13.7528 3.21034 13.6516C3.1785 13.5504 3.17966 13.4417 3.21366 13.3413L4.78116 8.69844L0.718657 5.9125C0.63066 5.85223 0.564246 5.76539 0.529117 5.66468C0.493988 5.56397 0.491985 5.45466 0.523402 5.35273C0.554819 5.2508 0.618008 5.16159 0.703738 5.09813C0.789468 5.03467 0.893245 5.00028 0.999907 5H6.01178L7.52428 0.345317C7.55686 0.244823 7.62044 0.157233 7.70589 0.0951107C7.79134 0.0329884 7.89426 -0.000473022 7.99991 -0.000473022C8.10555 -0.000473022 8.20848 0.0329884 8.29393 0.0951107C8.37937 0.157233 8.44295 0.244823 8.47553 0.345317L9.98803 5.00157H14.9999C15.1067 5.00151 15.2107 5.03566 15.2967 5.099C15.3827 5.16233 15.4461 5.25154 15.4777 5.35355C15.5094 5.45556 15.5075 5.56501 15.4724 5.66587C15.4373 5.76674 15.3708 5.85371 15.2827 5.91407L11.2187 8.69844L12.7852 13.34C12.8106 13.4152 12.8177 13.4953 12.806 13.5737C12.7944 13.6522 12.7642 13.7267 12.718 13.7912C12.6718 13.8557 12.6109 13.9082 12.5404 13.9445C12.4699 13.9809 12.3917 13.9999 12.3124 14Z" fill="black"/>
</svg>
